PS_ngait_og_ss3_kinetics.mot
version=1
nRows=21
nColumns=28
inDegrees=yes
endheader
time	1_ground_force_vx	1_ground_force_vy	1_ground_force_vz	1_ground_force_px	1_ground_force_py	1_ground_force_pz	2_ground_force_vx	2_ground_force_vy	2_ground_force_vz	2_ground_force_px	2_ground_force_py	2_ground_force_pz	3_ground_force_vx	3_ground_force_vy	3_ground_force_vz	3_ground_force_px	3_ground_force_py	3_ground_force_pz	1_ground_torque_x	1_ground_torque_y	1_ground_torque_z	2_ground_torque_x	2_ground_torque_y	2_ground_torque_z	3_ground_torque_x	3_ground_torque_y	3_ground_torque_z
  0.00000000	-12.37080157	 32.94588189	 -7.82066716	  0.22654855	 -0.00600000	  0.25179641	100.65803765	826.10923794	-39.43912182	 -0.05061532	 -0.00600000	  0.31562424	  0.00000000	  0.00000000	  0.00000000	  0.90000000	 -0.00600000	  0.20000000	  0.00000000	  1.66784407	  0.00000000	  0.00000000	 -3.96695332	  0.00000000	  0.00000000	  0.00000000	  0.00000000
  0.00083333	 -9.69147697	 36.06529597	 -5.09983693	  0.23313292	 -0.00600000	  0.23688137	100.89932243	825.58107709	-39.11806352	 -0.05031935	 -0.00600000	  0.31544799	  0.00000000	  0.00000000	  0.00000000	  0.90000000	 -0.00600000	  0.20000000	  0.00000000	  0.92090216	  0.00000000	  0.00000000	 -3.89517088	  0.00000000	  0.00000000	  0.00000000	  0.00000000
  0.00166667	 -7.02316330	 39.43295562	 -2.55788007	  0.23931419	 -0.00600000	  0.22488546	101.16953588	824.97700367	-38.78852168	 -0.05002424	 -0.00600000	  0.31528186	  0.00000000	  0.00000000	  0.00000000	  0.90000000	 -0.00600000	  0.20000000	  0.00000000	  0.33596089	  0.00000000	  0.00000000	 -3.82358084	  0.00000000	  0.00000000	  0.00000000	  0.00000000
  0.00250000	 -4.39907422	 43.06755803	 -0.30793464	  0.24517290	 -0.00600000	  0.21559005	101.47511808	824.28653049	-38.45239981	 -0.04973476	 -0.00600000	  0.31513172	  0.00000000	  0.00000000	  0.00000000	  0.90000000	 -0.00600000	  0.20000000	  0.00000000	 -0.10491750	  0.00000000	  0.00000000	 -3.75363434	  0.00000000	  0.00000000	  0.00000000	  0.00000000
  0.00333333	 -1.85637177	 46.98534795	  1.57175531	  0.25071777	 -0.00600000	  0.20872326	101.81874907	823.50553028	-38.11188631	 -0.04945423	 -0.00600000	  0.31500071	  0.00000000	  0.00000000	  0.00000000	  0.90000000	 -0.00600000	  0.20000000	  0.00000000	 -0.42210413	  0.00000000	  0.00000000	 -3.68699114	  0.00000000	  0.00000000	  0.00000000	  0.00000000
  0.00416667	  0.56485883	 51.19330303	  3.04391068	  0.25590972	 -0.00600000	  0.20395487	102.19921803	822.63387890	-37.76942731	 -0.04918510	 -0.00600000	  0.31488979	  0.00000000	  0.00000000	  0.00000000	  0.90000000	 -0.00600000	  0.20000000	  0.00000000	 -0.63810461	  0.00000000	  0.00000000	 -3.62525554	  0.00000000	  0.00000000	  0.00000000	  0.00000000
  0.00500000	  2.82790844	 55.68678340	  4.11168127	  0.26071176	 -0.00600000	  0.20092512	102.61186202	821.67226316	-37.42765088	 -0.04892858	 -0.00600000	  0.31479851	  0.00000000	  0.00000000	  0.00000000	  0.90000000	 -0.00600000	  0.20000000	  0.00000000	 -0.77583199	  0.00000000	  0.00000000	 -3.56972357	  0.00000000	  0.00000000	  0.00000000	  0.00000000
  0.00583333	  4.90738653	 60.45287731	  4.80962491	  0.26511330	 -0.00600000	  0.19927529	103.04957736	820.62153567	-37.08879719	 -0.04868437	 -0.00600000	  0.31472539	  0.00000000	  0.00000000	  0.00000000	  0.90000000	 -0.00600000	  0.20000000	  0.00000000	 -0.85619183	  0.00000000	  0.00000000	 -3.52117548	  0.00000000	  0.00000000	  0.00000000	  0.00000000
  0.00666667	  6.79378680	 65.47394964	  5.18689403	  0.26912211	 -0.00600000	  0.19865223	103.50466747	819.48323970	-36.75389684	 -0.04845086	 -0.00600000	  0.31466817	  0.00000000	  0.00000000	  0.00000000	  0.90000000	 -0.00600000	  0.20000000	  0.00000000	 -0.89599548	  0.00000000	  0.00000000	 -3.47972611	  0.00000000	  0.00000000	  0.00000000	  0.00000000
  0.00750000	  8.49268843	 70.72780337	  5.29048518	  0.27275264	 -0.00600000	  0.19872421	103.97042197	818.25904938	-36.42275456	 -0.04822593	 -0.00600000	  0.31462445	  0.00000000	  0.00000000	  0.00000000	  0.90000000	 -0.00600000	  0.20000000	  0.00000000	 -0.90678582	  0.00000000	  0.00000000	 -3.44479823	  0.00000000	  0.00000000	  0.00000000	  0.00000000
  0.00833333	 10.02075113	 76.18576203	  5.15617151	  0.27602060	 -0.00600000	  0.19921610	104.44163666	816.94937132	-36.09529759	 -0.04800734	 -0.00600000	  0.31459233	  0.00000000	  0.00000000	  0.00000000	  0.90000000	 -0.00600000	  0.20000000	  0.00000000	 -0.89507278	  0.00000000	  0.00000000	 -3.41544202	  0.00000000	  0.00000000	  0.00000000	  0.00000000
  0.00916667	 11.40099368	 81.81275081	  4.80822962	  0.27893991	 -0.00600000	  0.19992625	104.91465835	815.55348039	-35.77291147	 -0.04779298	 -0.00600000	  0.31457057	  0.00000000	  0.00000000	  0.00000000	  0.90000000	 -0.00600000	  0.20000000	  0.00000000	 -0.86367810	  0.00000000	  0.00000000	 -3.39088306	  0.00000000	  0.00000000	  0.00000000	  0.00000000
  0.01000000	 12.65787173	 87.57222178	  4.26434215	  0.28152434	 -0.00600000	  0.20072190	105.38665900	814.07143839	-35.45801065	 -0.04758142	 -0.00600000	  0.31455817	  0.00000000	  0.00000000	  0.00000000	  0.90000000	 -0.00600000	  0.20000000	  0.00000000	 -0.81343826	  0.00000000	  0.00000000	 -3.37071457	  0.00000000	  0.00000000	  0.00000000	  0.00000000
  0.01083333	 13.81327557	 93.43215308	  3.54096157	  0.28379492	 -0.00600000	  0.20152616	105.85440223	812.50466827	-35.15234008	 -0.04737206	 -0.00600000	  0.31455385	  0.00000000	  0.00000000	  0.00000000	  0.90000000	 -0.00600000	  0.20000000	  0.00000000	 -0.74478116	  0.00000000	  0.00000000	 -3.35451617	  0.00000000	  0.00000000	  0.00000000	  0.00000000
  0.01166667	 14.88518757	 99.36873045	  2.65606664	  0.28578628	 -0.00600000	  0.20229425	106.31407691	810.85468253	-34.85600376	 -0.04716441	 -0.00600000	  0.31455629	  0.00000000	  0.00000000	  0.00000000	  0.90000000	 -0.00600000	  0.20000000	  0.00000000	 -0.65856664	  0.00000000	  0.00000000	 -3.34146096	  0.00000000	  0.00000000	  0.00000000	  0.00000000
  0.01250000	 15.88874223	105.36793523	  1.62944104	  0.28754333	 -0.00600000	  0.20298993	106.76183347	809.12208932	-34.56790396	 -0.04695801	 -0.00600000	  0.31456458	  0.00000000	  0.00000000	  0.00000000	  0.90000000	 -0.00600000	  0.20000000	  0.00000000	 -0.55596198	  0.00000000	  0.00000000	 -3.33047331	  0.00000000	  0.00000000	  0.00000000	  0.00000000
  0.01333333	 16.83718933	111.42211268	  0.48235288	  0.28910930	 -0.00600000	  0.20358075	107.19378393	807.30637295	-34.28621422	 -0.04675241	 -0.00600000	  0.31457851	  0.00000000	  0.00000000	  0.00000000	  0.90000000	 -0.00600000	  0.20000000	  0.00000000	 -0.43831959	  0.00000000	  0.00000000	 -3.32051775	  0.00000000	  0.00000000	  0.00000000	  0.00000000
  0.01416667	 17.74027061	117.52294803	 -0.76249111	  0.29051690	 -0.00600000	  0.20405066	107.60585353	805.40694764	-34.00807627	 -0.04654702	 -0.00600000	  0.31459842	  0.00000000	  0.00000000	  0.00000000	  0.90000000	 -0.00600000	  0.20000000	  0.00000000	 -0.30775247	  0.00000000	  0.00000000	 -3.31037598	  0.00000000	  0.00000000	  0.00000000	  0.00000000
  0.01500000	 18.60109435	123.65976598	 -2.08141170	  0.29178789	 -0.00600000	  0.20440849	107.99393452	803.42585948	-33.72984040	 -0.04634130	 -0.00600000	  0.31462503	  0.00000000	  0.00000000	  0.00000000	  0.90000000	 -0.00600000	  0.20000000	  0.00000000	 -0.16737931	  0.00000000	  0.00000000	 -3.29852187	  0.00000000	  0.00000000	  0.00000000	  0.00000000
  0.01583333	 19.41517068	129.82418417	 -3.45109252	  0.29293711	 -0.00600000	  0.20467990	108.35398019	801.37000816	-33.44835842	 -0.04613497	 -0.00600000	  0.31465886	  0.00000000	  0.00000000	  0.00000000	  0.90000000	 -0.00600000	  0.20000000	  0.00000000	 -0.02044776	  0.00000000	  0.00000000	 -3.28378835	  0.00000000	  0.00000000	  0.00000000	  0.00000000
  0.01666667	 20.17234909	136.01389456	 -4.85004709	  0.29397851	 -0.00600000	  0.20489625	108.68186478	799.25062703	-33.16171341	 -0.04592799	 -0.00600000	  0.31469910	  0.00000000	  0.00000000	  0.00000000	  0.90000000	 -0.00600000	  0.20000000	  0.00000000	  0.13051070	  0.00000000	  0.00000000	 -3.26589093	  0.00000000	  0.00000000	  0.00000000	  0.00000000
